<?xml version="1.0" encoding="utf-8"?>
<!-- Generator: Adobe Illustrator 22.1.0, SVG Export Plug-In . SVG Version: 6.00 Build 0)  -->
<svg version="1.1" id="Capa_1" xmlns="http://www.w3.org/2000/svg" xmlns:xlink="http://www.w3.org/1999/xlink" x="0px" y="0px"
	 viewBox="0 0 2882.7 1851.2" style="enable-background:new 0 0 2882.7 1851.2;" xml:space="preserve">
<style type="text/css">
	.st0{clip-path:url(#SVGID_2_);}
	.st1{clip-path:url(#SVGID_4_);}
	.st2{clip-path:url(#SVGID_6_);fill:url(#SVGID_7_);}
</style>
<g>
	<g>
		<g>
			<g>
				<g>
					<defs>
						<polygon id="SVGID_1_" points="2882.7,1851.2 0,1847.9 0,0 2882.7,0 						"/>
					</defs>
					<clipPath id="SVGID_2_">
						<use xlink:href="#SVGID_1_"  style="overflow:visible;"/>
					</clipPath>
					<g class="st0">
						<g>
							<g>
								<g>
									<defs>
										<rect id="SVGID_3_" x="-10" y="-60.5" width="3019.4" height="2069.8"/>
									</defs>
									<clipPath id="SVGID_4_">
										<use xlink:href="#SVGID_3_"  style="overflow:visible;"/>
									</clipPath>
									<g class="st1">
										<g>
											<g>
												<g>
													<defs>
														<rect id="SVGID_5_" x="2.4" y="78.8" width="2883.1" height="2078.1"/>
													</defs>
													<clipPath id="SVGID_6_">
														<use xlink:href="#SVGID_5_"  style="overflow:visible;"/>
													</clipPath>
													
														<linearGradient id="SVGID_7_" gradientUnits="userSpaceOnUse" x1="1793.1799" y1="1924.325" x2="6150.3799" y2="1924.325" gradientTransform="matrix(1 0 0 -1 -2369.98 3189.2756)">
														<stop  offset="0" style="stop-color:#EC646E"/>
														<stop  offset="0.7469" style="stop-color:#654B99"/>
													</linearGradient>
													<path class="st2" d="M3780.4,987.7l-1.3-1.5l0.9-1.5h-1.3l-50-1123l1.4-1.9h-2.9l-716.1-16.9l-0.8-0.8l-0.1,0.8
														l-1412.6-33.2l0,0l0,0L508.7-214.4v0.5v-0.1v-0.4l-1066.8,32.1l-2.1-0.1l0.6,1.8l-16,1052.7l-0.4-0.1l0.2,1.6l-1,1.3
														l1.1,0.3l66,1114.2h-0.1l0.1,1.4l-0.4,1.6h0.5l23.8,275.8h-0.1l0.1,0.9l-2.7,2.2h2.9l0.1,1.4l0.2-0.2l63.6,369.9
														l-1.4,2.1l1.7-0.1l0.4,2.4l1.6-2.5l1425.7,98l-0.4,0.4l2.5-0.1l0.2,1.7l1.6-1.7l1.2,0.2l-0.1-0.4l2451.4-72.1v0.2
														l1.5-0.3l1.6,0.2v-0.5l178.2-31.7l1.2,1.7l0.7-2l1.4-0.3l-0.9-1.3l121.8-363.5l0.6-0.2l-0.2-1l0.8-2.3l-0.8,0.2
														l10-1279.3l0.4,0.5l-0.2-3.1L3780.4,987.7z M1359.1,2722.1l307.8-11.7l-398.9,17.5l-37,1.6l126.1-7.2v1.1
														L1359.1,2722.1z M941.8,2262l-70.8,4.4l-377.1,23.3l424.3-280.2l23.5,252l0,0L941.8,2262z M-237.5,197l192.3,36.2
														l-138.6,348.5L-455.1,156L-237.5,197z M-454.5,153.1l246.4-179l173.4-126l-9.9,382.2l-192.9-36.4L-454.5,153.1z
														 M-186,584l-204.8,41.4l-56-400.7l-9-64.1L-186,584z M-393.8,626l-1,0.2l0.8,1l-178.1,240.7l0.8-5l112.9-698.8
														L-393.8,626z M-561.1,858.2L-392,629.6l35.7,45.2l241.1,304.9L-572,872.9L-561.1,858.2z M-343.8,685.6l-45.5-57.5
														l204.6-41.3l70.8,389.6L-343.8,685.6z M-319,1293.1l219.5-67.4l-325.9,404.9l-32.5-125.6l-40.6-156.9L-319,1293.1z
														 M-494.6,1343.7l211.5-198.4l170.4-159.9l15.8,236.3L-494.6,1343.7z M-428.2,1631.9l-1.5-0.3l1.9,2.5l-21.2,92.1
														l-57.7,250.5l7.7-618.3L-428.2,1631.9z M-425.4,1637.4l272.9,361.9l-188.8-5.3l-165.2-4.6L-425.4,1637.4z M299,1644.7
														c0.4,2.6,1.7,4.9,3.5,6.7l-54.1,139.7L196.9,1924L-0.7,1745.4l-49.1-44.4L299,1644.7z M956.8,1283.2
														c1,3.8,3.9,6.9,7.6,8.2l-35.2,120l-35.1,119.7c-1-0.3-2.1-0.5-3.3-0.5c-4.8,0-9,2.9-10.8,7l-308.3-170.1
														c1.1-1.6,1.9-3.5,2.1-5.6L956.8,1283.2z M1612.3,900.6c1.1,4.6,4.9,8.2,9.6,8.9l1.9,109.6l3.7,205.6
														c-1.1,0.2-2.2,0.6-3.2,1.1l-180.4-294.9c2.9-2.1,4.8-5.5,4.8-9.4c0-0.2,0-0.3,0-0.4L1612.3,900.6z M2039.6,934.6
														c0.1,1.6,0.6,3.1,1.3,4.4L1842,1082l-203.5,146.4c-2-2.2-4.7-3.6-7.8-3.8l-5.6-314.9c5.1-0.5,9.3-4.3,10.3-9.3
														L2039.6,934.6z M3434.7,266.7v308l-0.2-0.2l0.1,2.7l-317.7-41.4l234.5-199.6l83-70.6l-0.1,1.7L3434.7,266.7z
														 M3113.9,534.5l-160.3-310.7l478.9,39.6L3113.9,534.5z M3433.9,580.2l-0.8,1.3l1.7-0.5v3.6l0.2-0.4l17.6,409.1
														l-335.9-454.4L3433.9,580.2z M3587.6,322.4L3439,261.8l0.9-0.8l-0.9-0.1l249-343.4l35-48.3L3587.6,322.4z
														 M3588.9,326.9L3736.3,494l-175.8,48.8l-121,33.7l64.5-107.8L3588.9,326.9z M3586.4,325l-148.7,248.5V264.4L3586.4,325
														z M1175.9,1900.2l22.6-241.5c4.2-0.3,7.9-2.8,9.7-6.3l431.6,209l-462.7,39.4l0.9-1.4L1175.9,1900.2z M569.6,1369.8
														l309.6,170.8c-0.1,0.6-0.2,1.2-0.2,1.8c0,1.4,0.3,2.8,0.7,4l-287.6,56c-2.1-2.5-5.2-4.2-8.7-4.3l-10.3-113.6l-10.2-112
														C565.4,1372.3,567.7,1371.3,569.6,1369.8z M968.2,1292c2.4,0,4.6-0.8,6.5-2l216.4,347.2c-1.4,0.9-2.5,2.2-3.4,3.6
														l-286.2-93.5c0.7-1.5,1.1-3.1,1.1-4.9c0-4.3-2.3-8-5.7-10.1l35.6-121.2l34.9-119.1C967.6,1292,967.9,1292,968.2,1292z
														 M1289.7,1187l328.3,49.7c0.1,4.7,3,8.7,7,10.5l-68.7,250.8c-0.7-0.1-1.4-0.2-2.1-0.2c-2.1,0-4,0.5-5.7,1.4
														L1203,1178.5c0.8-1.3,1.4-2.9,1.6-4.5L1289.7,1187z M2049.7,945.1l26.6,382.3c-4,0.8-7.3,3.8-8.6,7.6l-122-27.7
														l-304.3-69.3c0-0.5,0.1-1.1,0.1-1.6c0-2-0.5-3.8-1.4-5.5l332.5-239.1l70.1-50.4C2044.5,943.4,2047,944.7,2049.7,945.1z
														 M2206.8,893.3l35.1,280.5c-1.1,0.2-2.1,0.5-3,0.9l-102-131.5l-78.1-100.7c2.6-2.2,4.2-5.4,4.2-9
														c0-0.8-0.1-1.5-0.2-2.2l11.4-3.9l123.1-42.6C2198.6,889.2,2202.4,892.5,2206.8,893.3z M2229.2,650.2
														c3.5-0.1,6.6-1.7,8.7-4.2l347.9,264.2c-0.5,1-0.9,2.1-1.2,3.2l-364.4-33.8c-0.9-5.4-5.4-9.5-10.9-9.8L2229.2,650.2z
														 M2586.3,543.7l260.1,271.7L2981,956.1l-53.2-5.8l-319.9-34.6c-0.2-6-4.9-10.9-10.9-11.4l-15.1-358.6
														C2583.5,545.3,2585,544.7,2586.3,543.7z M3416,1139.7l38.6-137l125.8,292.2L3416.9,1141l1.1-0.5L3416,1139.7z
														 M3582.5,1301.1L3405.7,1529l6.3-245.9l3.6-139.1L3582.5,1301.1z M3412,1166.7l-9.3,364.2l-364.3-227.7l374.2-160.4
														L3412,1166.7z M3400.4,1533L2931,1667.7l105-362.4L3400.4,1533z M2337.6,1855l-111.4-338c3-1.7,5.2-4.7,5.8-8.2
														l335.7,54.7c0,0.5-0.1,1.1-0.1,1.6c0,2.4,0.7,4.6,1.9,6.4l-92.6,113.5l-137.7,168.6l0.1-0.7L2337.6,1855z
														 M1629.8,1248.2c4.9,0,9.1-3,10.9-7.3l75.7,17.2l350.8,79.9c-0.1,0.3-0.1,0.6-0.1,0.9c0,0.7,0.1,1.5,0.2,2.2
														l-503.3,162c-1.2-1.8-2.9-3.3-4.9-4.2l68.8-250.9C1628.5,1248.1,1629.1,1248.2,1629.8,1248.2z M2220.4,882.6
														l363.9,33.8c0.1,2,0.6,3.8,1.5,5.4l-333.3,255.3c-1.9-1.9-4.5-3.2-7.3-3.5l-35.1-280.4
														C2215.6,892.5,2219.9,888.1,2220.4,882.6z M2593.9,927.6l-19.1,427.1c-2.9,0.5-5.4,2-7.2,4.2l-312.4-170.4
														c0.3-1,0.5-2.1,0.5-3.2c0-2.1-0.5-4.1-1.5-5.8l333.4-255.3C2589.3,925.9,2591.5,927.1,2593.9,927.6z M2707.6,1481
														l214.9,185.6l-86.4-26.2l-244.9-74.2c0.1-0.3,0.1-0.7,0.1-1c0-6.5-5.3-11.8-11.8-11.8h-0.1l-1.8-175.3
														c2.8-0.2,5.4-1.4,7.3-3.2L2707.6,1481z M2568.5,1560.7l-336.3-54.8c-0.1-1-0.3-2-0.6-2.9l334.3-132.2
														c1.5,3.6,4.7,6.3,8.6,7.1l1.8,175.9C2572.8,1554.8,2569.9,1557.3,2568.5,1560.7z M2008,1545.7l-442.3-38.8
														c-0.1-0.4-0.2-0.8-0.3-1.1l502.9-161.8c1.7,3.5,5,6,9,6.6l1.6,176.9l0.1,14.7c-4.9,0.6-8.8,4.2-9.9,8.9L2008,1545.7z
														 M2092.1,1551.3l89.1-30.6l28.4-9.7c1.7,4.4,6,7.6,11,7.6c1,0,2-0.2,3-0.4l109.8,333.2l-244.1-289.8c1.9-2,3-4.8,3-7.8
														C2092.3,1553,2092.2,1552.1,2092.1,1551.3z M2245.5,1196.9c3.6-0.5,6.7-2.6,8.5-5.6l312,170.2c-0.6,1.5-1,3.1-1,4.8
														c0,0.5,0,1,0.1,1.5l-334.9,132.4c-1.6-2.4-4.1-4.1-7-4.8l19.3-257.2L2245.5,1196.9z M2236.7,1194.5
														c1.6,1.3,3.7,2.2,5.9,2.5l-22.3,298.1c-1.9,0.1-3.6,0.5-5.1,1.3L2087.4,1347c2-2.1,3.2-5,3.2-8.1
														c0-2.5-0.8-4.9-2.2-6.8l51.9-48.2L2236.7,1194.5z M2084.9,1349l127.7,149.2c-2.4,2.1-3.9,5.2-3.9,8.7
														c0,0.4,0.1,0.8,0.1,1.2l-117.8,40.4c-1.7-3.4-5.1-5.8-9-6.3l-1.8-191.6C2081.9,1350.4,2083.6,1349.8,2084.9,1349z
														 M1566,1509.8l502.9,44.2c0,1.8,0.5,3.6,1.3,5.1l-279.1,198l-144.5,102.6l-0.3-1.9l-0.3,0.5l-86.1-338.5
														C1563.3,1517.9,1565.7,1514.2,1566,1509.8z M1647.4,1864.3l238.5,32.8l78.1,10.7l-91.3,179.4L1730.4,2367l-82.1-496.4
														l-0.9-5.5l0.3,0.1L1647.4,1864.3z M1843.6,1888.2l-194.2-26.7l422.4-299.8c1.1,1.1,2.3,2,3.7,2.7l-110.3,340.5
														L1843.6,1888.2z M2078.3,1565.3c0.7,0.1,1.5,0.2,2.2,0.2c2.4,0,4.6-0.7,6.5-1.9l77.5,92.1l169.8,201.6l-365.9,47.5
														L2078.3,1565.3z M2571.5,1573.9c2,1.8,4.5,2.9,7.4,3l71.2,359.7l-310.2-79L2571.5,1573.9z M2582.1,1576.6
														c3.9-0.8,7.1-3.7,8.5-7.5l335.4,101.6l-272.9,265L2582.1,1576.6z M2945.1,1837.4l-287.2,97.7l269.7-261.9l17.2,160.2
														l0.4,3.4h-0.1V1837.4z M2945.7,1840.4l59.9,320.9l17.2,92.3l-367.7-314.3L2945.7,1840.4z M2947.9,1833.4l-17.2-160.8
														l336.5,174.1l-80.6-2.5l-238.3-7.3L2947.9,1833.4z M2928.1,1667.2l-341.3-294.7c1.1-1.8,1.8-3.9,1.8-6.2
														c0-0.4,0-0.9-0.1-1.3l444.5-60.2L2928.1,1667.2z M2582.8,1356.1c-1.5-0.9-3.1-1.4-4.9-1.6l19.1-426.8
														c5.2-0.3,9.4-4.1,10.6-9l277.1,30l97,10.5l-19.4,19.3L2582.8,1356.1z M2056.4,944.1l180.1,232.1
														c-2.6,2.1-4.3,5.4-4.3,9.1c0,2.6,0.9,5,2.4,7l-61.7,57.3l-86.5,80.2c-2-1.6-4.4-2.6-7.1-2.7l-26.5-382
														C2054.1,945,2055.3,944.6,2056.4,944.1z M1201,1180.9l114.9,106.7l230,213.5c-2.2,2.1-3.6,5.2-3.6,8.5
														c0,0.4,0.1,0.9,0.1,1.3l-311.6,120.8l-23.1,9c-1.8-2.8-4.7-4.8-8.1-5.3l-1.3-104.9l-4.4-346.3
														C1196.7,1183.9,1199.2,1182.7,1201,1180.9z M579.3,1620.9l-17.5,158.5l-18.5,167.3l-225.6-294.4
														c2.8-2.1,4.6-5.5,4.6-9.3c0-0.5,0-1-0.1-1.5l249-32.7c0,0.4,0,0.7,0,1.1C571.2,1615.1,574.6,1619.5,579.3,1620.9z
														 M310.6,1654.8c1.6,0,3.1-0.3,4.5-0.9L541.2,1949l-341.5-23.7L305,1653.4C306.7,1654.3,308.6,1654.8,310.6,1654.8z
														 M382.1,1940.9l159.3,11.1l-245,306.3l-96.8-330L382.1,1940.9z M293.2,2258.3l-36.2-21.2l-402.3-235.6l5.7-1.2
														l336.1-71.9L293.2,2258.3z M51.1,2120l239.2,140.1l-98.6,1.3l-365.5,4.7l25.7-262.7L51.1,2120z M194.1,2264.4l100-1.3
														l-25.7,274.6L-170.2,2269L194.1,2264.4z M297.1,2264l1.2,0.7l-0.4-1.4l186.3,29.1l-1.5,1l2-0.1l-130.1,148l-83,94.5
														L297.1,2264z M298.6,2260.5L542,1956.2l-55,333.7L298.6,2260.5z M545.5,1954.5l0.2,0.2l0.2-2.2l369.5,55.3l-425,280.7
														L545.5,1954.5z M547.2,1949.7l0.2-0.2l-1.2-0.1l0.7-4.1l-0.4,0.4l27.6-249.8l8.2-74.3c0.2,0,0.4,0,0.6,0
														c3.2,0,6.1-1.3,8.2-3.3l174.2,207.4l150.4,179.1L547.2,1949.7z M766.3,1822.4L593,1616c1.1-1.8,1.7-3.9,1.7-6.1
														c0-1.7-0.4-3.3-1-4.7l287.4-56c2.1,2.9,5.5,4.9,9.3,5l27.3,448.2L766.3,1822.4z M893.4,1553.9c0.8-0.2,1.4-0.4,2.1-0.7
														l91.4,115.4l184.9,233.4l-140.4,57.5l-110.5,45.2L893.4,1553.9z M1096.1,1801.5l-198-249.9c0.6-0.5,1.2-1.1,1.7-1.7
														l286.7,93.7c-0.3,1-0.5,2.1-0.5,3.3c0,5.8,4.1,10.5,9.5,11.6l-9.7,103.6l-12.8,136.6L1096.1,1801.5z M1209.3,1649.6
														c0.2-0.8,0.3-1.7,0.3-2.6c0-1.3-0.2-2.5-0.6-3.6l36.3-14.1l297.8-115.5c1.7,4.4,6,7.5,11,7.5c1,0,2-0.2,2.9-0.4
														l76.9,302.5l9.2,36.3L1209.3,1649.6z M1644.6,1867l80,484.1l3.2,19.3l-312.9,3.4l-49.7,0.5l249.5-452.9L1644.6,1867z
														 M1727.2,2373.3l-0.6,1.2l0.7-0.2l-50.7,157.8l-285-143.4l-22.7-11.4L1727.2,2373.3z M1677.4,2536.1l182,101.7
														l-436.2,71l-56.8,9.2L1677.4,2536.1z M1680.5,2534.4l0.1-0.1l-1.3-0.7l50.6-157.7l27.8,55.1l102.7,203.8L1680.5,2534.4
														z M1831.6,2570.8l-99.9-198.2l323.7-116.4l-191.4,379L1831.6,2570.8z M1732.7,2369.1l233.1-458.3l60.8,228.6
														l29.9,112.6h-0.1l0.2,0.6L1732.7,2369.1z M1968.1,1907.9l365.9-47.5L2059.1,2250L1968.1,1907.9z M2286.7,1932.7
														l48.5-68.7l-37.4,390l-236.4-2L2286.7,1932.7z M2338.5,1860.3l310.4,79.1L2301,2251.8L2338.5,1860.3z M2433.9,2136.6
														l215.8-193.7l-94.9,446.7l-253-134.4L2433.9,2136.6z M2653.1,1941.5l368.9,315.4l-145.1,41.5l-319.1,91.4
														L2653.1,1941.5z M2584.5,2385.2l438.3-125.5l-98.9,324.5l-364-191.9L2584.5,2385.2z M2966.4,1934.9l-17.7-94.9
														l178.5,5.5l144,4.4l-4.7,7.7l-240.6,395.8L2966.4,1934.9z M3004.6,1707.4l-71.7-37.1l468.6-134.4L3273,1846.3
														L3004.6,1707.4z M3405,1535.7l0.7,0.5v-0.8l201.6,41.1l-329.8,267L3405,1535.7z M3468.1,1545.1l-61.2-12.5l176.6-227.7
														l25.5,268.9L3468.1,1545.1z M3586.2,1301.4l0.5-0.6l-0.1-0.1l186.1-304.4l-68.7,243.1l-92.6,328.1L3586.2,1301.4z
														 M3584.9,1297.7l-128.3-298.1l122.2-4.6l195.6-7.3L3584.9,1297.7z M3578.1,992l-122.4,4.6l-17.8-413.2L3774,984.7
														L3578.1,992z M3413.3,1137.7l-0.6-0.6v1.2l-418-177.7l-0.4-0.2l458,39.1L3413.3,1137.7z M3261.4,1077.2l148.9,63.3
														l-373.9,160.3l-49.5-340.3L3261.4,1077.2z M3033.4,1301.7l-398.7,54l-46.9,6.4c-0.6-1.5-1.5-2.9-2.6-4l371-369.2
														l27.7-27.6L3033.4,1301.7z M2847.3,812l-258.8-270.2c1.7-2,2.8-4.7,2.8-7.6c0-2.3-0.6-4.5-1.8-6.3l353.6-340.3
														l40.2,766.5L2847.3,812z M2578.9,545.9l15.1,358.6c-2.5,0.4-4.6,1.6-6.3,3.3L2403,767.5l-163.4-124.1
														c0.8-1.6,1.2-3.3,1.2-5.1c0-1-0.2-2-0.4-2.9l328.7-95.8C2571,543.2,2574.6,545.6,2578.9,545.9z M2226.4,649.9
														l-20,220.2c-5.4,1-9.4,5.8-9.4,11.5c0,0.1,0,0.1,0,0.2l-67.8,23.5l-67.2,23.2c-0.9-1.8-2.1-3.3-3.7-4.5l165.4-275.2
														C2224.5,649.2,2225.4,649.6,2226.4,649.9z M1429.2,930.4c2.1,1.7,4.8,2.8,7.7,2.8c1.6,0,3-0.4,4.4-0.9l180.6,295.2
														c-1.7,1.6-3,3.6-3.6,6l-323.1-48.9l-90.6-13.7c-0.3-2.8-1.7-5.3-3.6-7.1L1429.2,930.4z M1190.8,1184l4.3,341l1.4,110.2
														c-1,0.1-1.9,0.4-2.8,0.7L976.9,1288c1.9-2.1,3-4.8,3-7.8c0-1.5-0.3-3-0.8-4.3l203-98.7
														C1183.7,1180.7,1186.9,1183.3,1190.8,1184z M555.7,1370.8c1.2,0.8,2.6,1.3,4.1,1.6l10.3,113.1l10.3,112.9
														c-3.9,0.9-7,3.7-8.4,7.3l-250.5,32.9c-0.8-2.1-2.2-3.8-4-5.1L555.7,1370.8z M-0.5,1749.7l194.8,176.1l-317.5,67.9
														l-24,5.1l94.8-296.1L-0.5,1749.7z M-113.5,1883.9l-36.4,113.7L-422.6,1636l367.5,65.2L-113.5,1883.9z M-151.1,2004.2
														l-25.5,260.7h-0.1l-0.1,1.1l-152.5,1l-150.6,1l158-126.8L-151.1,2004.2z M-174.1,2270.1l439.7,269.4l-351.7,63.1
														l-111.8,20.1l9-134.2L-174.1,2270.1z M32.8,2584.2l235.3-42.2l-0.2,2.7l2.2-2.6l1,0.6v-0.4l365.5,138.1l-783.9-53.9
														l-39.9-2.7L32.8,2584.2z M272.3,2539.6l83-94.4l132.5-150.7l93.8,231.6L644,2680L272.3,2539.6z M490.4,2293.1l65.7-4.1
														l384.3-23.7L692,2616.1l-44.9,63.5L490.4,2293.1z M921.2,2008.7l2,0.3l-1.2-1.5l248.3-101.7L1000,2172.3l-55.4,86.7
														L921.2,2008.7z M946.4,2261.8l170.5-266.9l56.9-89.1l171.1,429.6l15.2,38.2l-357.1-95.7l-57-15.3l0.6-0.8H946.4z
														 M1176.3,1903.9l466.4-39.7l-279.8,508.1L1176.3,1903.9z M1364.1,2378.4l310.2,156.1l-314.1,183.7l1.9-165.2
														L1364.1,2378.4z M1383.3,2718.4l480-78.1l0.8,1.7l0.6-1.3l2.9,1.6l-0.9-1.8l197.6,29.4l120.3,17.9L1383.3,2718.4z
														 M1866.3,2637.3l191.9-379.9l140.5,429.4L1866.3,2637.3z M2060.6,2255l236.7,2l-88.5,389.7l-8.2,36.3L2060.6,2255z
														 M2212.9,2642.8l87.4-385.1l212,112.6l39.6,21.1l0,0l1.3,0.7l-349.8,292.5L2212.9,2642.8z M2555.6,2394.1l156,207.3
														l-505.4,84.9L2555.6,2394.1z M2561.1,2396.5l358.4,188.9l-46.4,3.5l-158.1,12L2561.1,2396.5z M2836,2594.8l86.8-6.6
														l-0.3,1l2.3-1l1,0.5l0.1-0.5l478.1,72.9l12.7,1.9l-684-60.4L2836,2594.8z M3025.9,2260.2l1.5,1.3l-0.4-1.9l422.4,102.6
														l-522.2,221.6L3025.9,2260.2z M3387.1,2344l-359.6-87.4l245.9-404.6l178.5,507.7L3387.1,2344z M3381,2149.1
														l-104.8-298.2l306,106.3l116.4,40.4l-26.8,39.7l-217.1,321.2L3381,2149.1z M3276.8,1847.9l332.9-269.5l89.2,416.1
														L3276.8,1847.9z M3612.4,1576.2l1.8-1.4l-1.6-0.3l161.9-573.5l-74.3,985.2L3612.4,1576.2z M3714.6,909.1l-275.7-329.3
														l229.6-63.9l69.2-19.2l37.6,484.8L3714.6,909.1z M3771.6,894.2L3740.7,496l1.1-0.3l-1.2-1.4l-9.8-514.7L3771.6,894.2z
														 M3726.5-91.8l11.1,582.4l-105.9-120l-41.1-46.5l0.3-0.6l-0.4-0.1l135.2-452.6L3726.5-91.8z M3724.1-137.4l-286,394.4
														L3450,85.7l15.7-227.1L3724.1-137.4z M3414.8-142.7l47.9,1.3l-15.8,226.7l-12,173.6l-23.6-23.2l-396.4-389
														L3414.8-142.7z M3012.1-151.8l420.1,412.1l-201.8-16.7l-277.7-22.9L3012.1-151.8z M2291-170.7l661.3,15.9l-387.4,10.6
														l-139.4,3.8l-403.1-24.4l-341.9-20.7L2291-170.7z M3000.7-153.2l-282.5,92.9l-282.5-77.4L3000.7-153.2z M1812.5-174.5
														l600.5,36.4l-454.6,83.9l-351.2-132.7L1812.5-174.5z M1574-188l-327.7,35.6l-634.7-53.5l-54.4-4.6L1574-188z
														 M1240.3-150L989.6-38.3L519.4-210.6L1240.3-150z M508.5-211.4L989.1-35.2l0.6,0.2l257.2-114.5l350.3-38l360.6,136.2
														l0.4,0.2l467.3-86.2l292.4,80.1l0.4,0.1l290.9-95.6l-59.6,373.2l-1.3-0.1l1,2l-0.2,1.1l0.8,0.1l160.7,311.5l-0.7-0.1
														l1.3,1.7l-1.5,1.3l2.6,0.3l0.5,1l0.2-0.2l338,457.2l-464.6-39.7l-40.7-775.9l-358.1,344.7c-2.1-2-4.9-3.2-8-3.2
														c-6.5,0-11.8,5.3-11.8,11.8c0,0.9,0.1,1.8,0.3,2.7l-328.8,95.8c-2-3.6-5.9-6-10.3-6c-6.5,0-11.8,5.3-11.8,11.8
														c0,3.5,1.6,6.6,4,8.8l-165.6,275.3c-1.3-0.5-2.8-0.8-4.3-0.8c-5.8,0-10.7,4.3-11.6,9.9l-403.9-34
														c-0.4-6.2-5.5-11.2-11.8-11.2c-6.5,0-11.7,5.1-11.8,11.5l-163.8,20.4c-1.5-4.9-6-8.4-11.3-8.4
														c-6.5,0-11.8,5.3-11.8,11.8c0,2.5,0.8,4.8,2.1,6.7l-228.8,233.9c-1.7-0.9-3.6-1.4-5.6-1.4c-6.5,0-11.8,5.3-11.8,11.8
														c0,0.6,0.1,1.2,0.2,1.8l-203.6,99c-2.1-2.9-5.6-4.8-9.5-4.8c-6.5,0-11.7,5.2-11.8,11.6L573.7,1359
														c-0.9-5.6-5.7-9.9-11.6-9.9c-6.5,0-11.8,5.3-11.8,11.8c0,3.1,1.2,5.9,3.1,8l-238.7,263.3c-1.3-0.5-2.7-0.8-4.1-0.8
														c-6.1,0-11.1,4.6-11.7,10.5l-351.6,56.6l-1.2-1.1l-0.3,1l-369.2-65.5l329-408.8l0.7-0.2v-0.6l2.7-3.4l-2.9,0.9
														l-15.8-236.7l2.2,0.5l-1.8-2.3l1.1-1l-1.7-0.4l-0.1-2.1l-0.3,0.3l-71.4-392.9l0.7-0.1l-0.8-1.2l139.6-351.1l0.5,0.1
														v-1.5l0.6-1.5l-0.5-0.1l10-384l349.2,59.9l0.6,0.1L508.5-211.4z M502-210.9L317.6-96.4l-339.7-58.2l500.6-53.8
														L502-210.9z M469.1-210.5l-500.6,53.8v-1.3l-2.1,1.5l-99.5-4.9l-387.4-19.2L469.1-210.5z M-452.2-174.3l414.8,20.6
														l-53.8,39.1l-366.2,266l-99-330.8L-452.2-174.3z M-557-171.2l17.5,58.4l79.2,264.7l-1-0.2l1.1,1.8l-1.7,1.2l2,0.4
														L-572.7,853L-557-171.2z M-114.4,982.9L-499.3,1344l-73.4-468.2L-114.4,982.9z M-571.2,905.2l69.1,440.9h-0.1l0.3,1.2
														l-7.5,601.3L-571.2,905.2z M-506.7,1992.3l353.1,9.9l-171.1,137.3l-158.4,127.1L-506.7,1992.3z M-482.5,2271.1l152.2-1
														l152-1l-241,369.4L-482.5,2271.1z M-284.2,2436.8l106.8-163.6l-14.6,217l-9,132.9l-216.2,17.7L-284.2,2436.8z
														 M-394.7,2642l193.6-15.8v0.2l1.7-0.3l748.7,51.4l-930-35L-394.7,2642z M-322.7,2647.7l968.4,36.4l0.7,1.7l0.9-1.3
														l2.1,0.8l-0.3-0.7l327.2,52.4L-322.7,2647.7z M690.4,2688.1l-41-6.6l293-413.8v0.3l0.2-0.2l12.8,92.2l52.5,379
														L690.4,2688.1z M1010.8,2737.6l-65.4-471.9l42.7,11.4l371.7,99.6L1010.8,2737.6z M1016.2,2736.2l344.9-356.6l-2,174.4
														l-1.9,165.3l-343.7,19.8L1016.2,2736.2z M1220.9,2733.2l100.1-4.4l875.6-38.3l-0.9,0.7l3.3-0.6l-0.5,2.2l1.7-1.4l1,3.1
														l0.9-4l1,0.1l-0.1-0.4l1037.6-16.5L1220.9,2733.2z M2220.9,2686.9l292.8-49.2l200.6-33.7l720.8,63.6L2220.9,2686.9z
														 M2930.3,2585.8l522.5-221.7l9.9,302.8L2930.3,2585.8z M3465.8,2666.8l-9.8-299.9l39.1,56.4l147.1,212.2L3465.8,2666.8
														z M3644.4,2633.2l-146.7-211.6l-40.9-58.9l308-88.9L3644.4,2633.2z M3525,2339.8l-67.1,19.4l82.2-121.7l160.2-237
														l65,270L3525,2339.8z M3765.8,2259.3l-63.1-262.1l0.7-1.1l-0.8-0.3l72.7-964.8L3765.8,2259.3z"/>
												</g>
											</g>
										</g>
									</g>
								</g>
							</g>
						</g>
					</g>
				</g>
			</g>
		</g>
	</g>
</g>
</svg>
