<?xml version="1.0" encoding="utf-8"?>
<!-- Generator: Adobe Illustrator 23.0.1, SVG Export Plug-In . SVG Version: 6.00 Build 0)  -->
<svg version="1.1" id="Capa_1" xmlns="http://www.w3.org/2000/svg" xmlns:xlink="http://www.w3.org/1999/xlink" x="0px" y="0px"
	 viewBox="0 0 263.36 456.53" style="enable-background:new 0 0 263.36 456.53;" xml:space="preserve">
<style type="text/css">
	.st0{fill:#FF656C;}
</style>
<path class="st0" d="M261.75,234.21l-1.63-100.43c0.87-0.1,1.55-0.83,1.55-1.73c0-0.97-0.78-1.75-1.75-1.75
	c-0.76,0-1.4,0.49-1.64,1.17l-38.67-9.52c0.01-0.08,0.03-0.17,0.03-0.25c0-0.97-0.78-1.75-1.75-1.75c-0.59,0-1.11,0.3-1.43,0.75
	L7.83,2.25c0.05-0.16,0.08-0.32,0.08-0.5C7.91,0.78,7.13,0,6.16,0S4.42,0.78,4.42,1.75c0,0.8,0.54,1.46,1.27,1.67l-4.24,313.6
	C0.62,317.17,0,317.88,0,318.74c0,0.97,0.78,1.75,1.75,1.75c0.52,0,0.98-0.23,1.3-0.58l126.7,76.02c-0.07,0.19-0.11,0.39-0.11,0.6
	c0,0.97,0.78,1.75,1.75,1.75c0.29,0,0.56-0.08,0.8-0.2l44,55.58c-0.26,0.31-0.43,0.7-0.43,1.13c0,0.97,0.78,1.75,1.75,1.75
	c0.97,0,1.75-0.78,1.75-1.75c0-0.37-0.11-0.71-0.31-0.99l50.13-50.86c0.32,0.31,0.75,0.5,1.23,0.5c0.97,0,1.75-0.78,1.75-1.75
	s-0.78-1.75-1.75-1.75c-0.18,0-0.34,0.03-0.51,0.08l-5.45-15c0.68-0.24,1.18-0.88,1.18-1.64c0-0.97-0.78-1.75-1.75-1.75
	c-0.1,0-0.2,0.01-0.3,0.03l-13.12-64.93c0.72-0.22,1.24-0.88,1.24-1.66c0-0.55-0.26-1.04-0.66-1.36l49.87-76.22
	c0.24,0.13,0.52,0.21,0.81,0.21c0.97,0,1.75-0.78,1.75-1.75C263.36,235.03,262.65,234.28,261.75,234.21z M258.75,133.33
	c0.12,0.11,0.26,0.21,0.41,0.28l-27.45,72.1c-0.18-0.06-0.37-0.11-0.58-0.11c-0.05,0-0.09,0.01-0.14,0.01l-6.13-39.77
	c0.76-0.19,1.32-0.87,1.32-1.69c0-0.51-0.22-0.96-0.56-1.28L258.75,133.33z M260.04,236.68l-54.21,32.02
	c-0.15-0.16-0.33-0.3-0.54-0.39l25.44-59.27c0.13,0.03,0.26,0.05,0.4,0.05c0.37,0,0.71-0.11,0.99-0.31l28.12,26.1
	c-0.23,0.29-0.36,0.66-0.36,1.06C259.87,236.21,259.93,236.46,260.04,236.68z M204.55,268.15c-0.91,0-1.64,0.69-1.73,1.57
	L84.24,285.03c-0.03-0.2-0.09-0.39-0.17-0.57l139.16-119.06c0.2,0.2,0.45,0.34,0.73,0.42l-19.31,102.34
	C204.61,268.16,204.58,268.15,204.55,268.15z M209.49,313.36c-0.61,0.13-1.09,0.57-1.28,1.15L84.23,285.58
	c0.01-0.07,0.02-0.14,0.02-0.21l118.57-15.31c0.08,0.89,0.82,1.59,1.73,1.59c0.01,0,0.03,0,0.04,0L209.49,313.36z M224.28,165.88
	c0.05,0,0.1,0.02,0.16,0.02c0.03,0,0.07-0.01,0.1-0.01l6.13,39.78c-0.74,0.2-1.28,0.87-1.28,1.68c0,0.71,0.42,1.32,1.03,1.59
	l-25.44,59.27c0,0,0,0,0,0L224.28,165.88z M219.54,122.27l38.67,9.52c-0.01,0.08-0.03,0.17-0.03,0.25c0,0.39,0.13,0.74,0.34,1.03
	l-33.18,29.59c-0.27-0.17-0.58-0.26-0.92-0.26c-0.03,0-0.07,0.01-0.1,0.01l-6.01-39.02C218.89,123.25,219.35,122.82,219.54,122.27z
	 M216.3,120.99c-0.1,0.22-0.16,0.46-0.16,0.71c0,0.97,0.78,1.75,1.75,1.75c0.03,0,0.07-0.01,0.1-0.01l6.01,39.02
	c-0.45,0.11-0.82,0.39-1.06,0.77L8.09,2.77L216.3,120.99z M7.56,2.79L222.8,163.54c-0.07,0.19-0.12,0.4-0.12,0.61
	c0,0.37,0.12,0.72,0.32,1L83.88,284.18c-0.32-0.41-0.81-0.68-1.37-0.68c-0.04,0-0.08,0.01-0.13,0.01L6.62,3.43
	C7,3.33,7.33,3.1,7.56,2.79z M1.77,317L6.02,3.48c0.05,0,0.1,0.01,0.15,0.01c0.04,0,0.08-0.01,0.13-0.01l75.77,280.09
	c-0.74,0.2-1.29,0.87-1.29,1.68c0,0.25,0.06,0.49,0.15,0.71L3.3,317.95C3.01,317.39,2.44,317.01,1.77,317z M129.89,395.62
	L3.24,319.64c0.16-0.26,0.25-0.57,0.25-0.9c0-0.17-0.03-0.33-0.08-0.49l77.66-32c0.32,0.45,0.84,0.75,1.43,0.75
	c0.24,0,0.46-0.05,0.67-0.13l47.22,108.2C130.19,395.21,130.02,395.41,129.89,395.62z M131.38,394.77c-0.24,0-0.48,0.05-0.69,0.14
	l-47.22-108.2c0.3-0.2,0.53-0.48,0.66-0.82l123.99,28.94c-0.01,0.08-0.02,0.15-0.02,0.23c0,0.43,0.16,0.83,0.43,1.13l-76.06,78.96
	C132.17,394.92,131.8,394.77,131.38,394.77z M178.73,453.54c-0.32-0.31-0.75-0.5-1.23-0.5c-0.41,0-0.78,0.15-1.08,0.38l-43.96-55.53
	c0.31-0.24,0.53-0.59,0.62-0.98l95.47,4.75c0,0.01,0,0.02,0,0.03c0,0.37,0.11,0.71,0.31,0.99L178.73,453.54z M223.78,385.13
	c0.09,0,0.17-0.01,0.25-0.03l5.47,15.05c-0.45,0.24-0.79,0.66-0.9,1.18l-95.47-4.75c0-0.01,0-0.01,0-0.02l89.14-12.32
	C222.57,384.77,223.13,385.13,223.78,385.13z M223.16,381.75c-0.66,0.25-1.13,0.88-1.13,1.63c0,0.19,0.04,0.38,0.1,0.55l-89.03,12.3
	c-0.05-0.32-0.19-0.6-0.39-0.83l76.06-78.96c0.3,0.24,0.67,0.39,1.08,0.39c0.06,0,0.12-0.01,0.18-0.02L223.16,381.75z
	 M210.66,313.53c-0.24-0.13-0.52-0.21-0.81-0.21c-0.01,0-0.03,0-0.04,0l-4.9-41.72c0.79-0.17,1.38-0.87,1.38-1.71
	c0-0.35-0.1-0.66-0.28-0.94l54.18-31.99c0.09,0.13,0.2,0.24,0.32,0.33L210.66,313.53z M260.46,234.64l-28.09-26.07
	c0.31-0.32,0.51-0.75,0.51-1.23c0-0.64-0.35-1.2-0.87-1.5l27.46-72.12c0.11,0.03,0.21,0.05,0.33,0.06l1.63,100.43
	C261.05,234.26,260.72,234.41,260.46,234.64z"/>
</svg>
