<?xml version="1.0" ?><svg viewBox="0 0 128 128" xmlns="http://www.w3.org/2000/svg"><defs><style>.cls-1{fill:#f2f2f2;}.cls-2{fill:#4ec3c7;}.cls-3{fill:#ffcf01;}.cls-4{fill:#f9a01b;}.cls-5{fill:#a64d2c;}</style></defs><title/><g data-name="11 Data Visualization" id="_11_Data_Visualization"><path class="cls-1" d="M88.81,98.4H44.38c-2.4,0-2.38,4,0,4H88.81C91.21,102.4,91.19,98.4,88.81,98.4Z"/><polygon class="cls-2" points="78.6 98.4 54.6 98.4 56.6 82.4 76.6 82.4 78.6 98.4"/><rect class="cls-2" height="60" rx="5.48" ry="5.48" width="96" x="18.6" y="22.4"/><circle class="cls-3" cx="35.63" cy="37.92" r="8.98"/><path class="cls-4" d="M37.62,29.16l-2,8.75L44,41.29a9,9,0,0,0-6.33-12.13Z"/><path class="cls-2" d="M44,41.29l-8.32-3.37,2.08,8.6.1.1A9,9,0,0,0,44,41.29Z"/><polygon class="cls-4" points="17.95 70.4 38.95 50.43 55.95 53.28 78.95 45.21 93.45 49.91 114.6 33.81 114.6 70.4 17.95 70.4"/><polygon class="cls-2" points="17.95 70.4 39.31 55.38 58.88 57.99 77.95 51.35 95.99 54.61 114.6 44.34 114.6 70.4 17.95 70.4"/><polygon class="cls-3" points="17.95 70.4 41.95 59.93 63.95 61.78 77.95 56.69 95.45 61.05 114.6 55.02 114.6 70.4 17.95 70.4"/><path class="cls-1" d="M114.6,76.92V70.4h-96v6.52a5.48,5.48,0,0,0,5.48,5.48h85A5.48,5.48,0,0,0,114.6,76.92Z"/><path class="cls-5" d="M106.52,24.6h-85A6.49,6.49,0,0,0,15,31.08v49a6.49,6.49,0,0,0,6.48,6.48h85A6.49,6.49,0,0,0,113,80.12v-49A6.49,6.49,0,0,0,106.52,24.6ZM111,80.12a4.48,4.48,0,0,1-4.48,4.48h-85A4.48,4.48,0,0,1,17,80.12v-49a4.48,4.48,0,0,1,4.48-4.48h85A4.48,4.48,0,0,1,111,31.08Z"/><path class="cls-5" d="M53.37,98.72l1.25-10a1,1,0,0,0-2-.25l-1.25,10A1,1,0,0,0,53.37,98.72Z"/><path class="cls-5" d="M76.62,98.47l-1.25-10a1,1,0,0,0-2,.25l1.25,10A1,1,0,0,0,76.62,98.47Z"/><path class="cls-5" d="M86.22,100.6H41.78c-3.71,0-3.72,6,0,6H86.22C89.93,106.6,89.94,100.6,86.22,100.6Zm0,4H41.78c-1.08,0-1.07-2,0-2H86.22C87.3,102.6,87.29,104.6,86.22,104.6Z"/><path class="cls-5" d="M108,72.6H20a1,1,0,0,0,0,2h88a1,1,0,0,0,0-2Z"/><path class="cls-5" d="M33,51.1a10,10,0,1,0-10-10A10,10,0,0,0,33,51.1Zm0-18a8,8,0,1,1-8,8A8,8,0,0,1,33,33.13Z"/><path class="cls-5" d="M32,41.22s0,.06,0,.09,0,0,0,.06l1.51,5.78a1,1,0,0,0,1.94-.5l-1-3.87,3.83,1.51a1,1,0,0,0,.74-1.86l-4.85-1.92,1.22-5a1,1,0,0,0-1.94-.48l-1.43,5.8s0,0,0,.05A1,1,0,0,0,32,41.22Z"/><path class="cls-5" d="M19.29,70.65l19.59-5.92a1,1,0,0,0-.58-1.91L25.78,66.6,36.28,60a1,1,0,0,0-1.07-1.69l-7.1,4.47,8.44-7.67a1,1,0,0,0-1.34-1.48c-.23.21-17,15.35-17.11,15.63A1,1,0,0,0,19.29,70.65Z"/><path class="cls-5" d="M38.32,54.61l14,2.58.18,0a1,1,0,0,0,.18-2l-14-2.58A1,1,0,0,0,38.32,54.61Z"/><path class="cls-5" d="M55.42,57a1,1,0,0,0,.33-.06L75.89,49.8a1,1,0,0,0-.67-1.89L55.09,55A1,1,0,0,0,55.42,57Z"/><path class="cls-5" d="M78.07,49.8,89.8,54a1,1,0,0,0,.68-1.88L78.75,47.92A1,1,0,0,0,78.07,49.8Z"/><path class="cls-5" d="M108.38,38.94,92.08,51.87a1,1,0,0,0,1.24,1.57l16.3-12.92A1,1,0,0,0,108.38,38.94Z"/><path class="cls-5" d="M55.5,62.19a1,1,0,0,0,.15-2l-17-2.61a1,1,0,0,0-.3,2l17,2.61Z"/><path class="cls-5" d="M74.26,53.81,58,59.93a1,1,0,1,0,.71,1.87L75,55.68A1,1,0,0,0,74.26,53.81Z"/><path class="cls-5" d="M77.27,55.53l14.62,3.24a1,1,0,0,0,.43-2L77.7,53.58A1,1,0,0,0,77.27,55.53Z"/><path class="cls-5" d="M108.52,48.84,94.4,56.48a1,1,0,0,0,1,1.76l14.13-7.64A1,1,0,0,0,108.52,48.84Z"/><path class="cls-5" d="M41.44,64.47,60.39,66h.08a1,1,0,0,0,.08-2L41.6,62.47A1,1,0,0,0,41.44,64.47Z"/><path class="cls-5" d="M74.28,59.76,63,63.67a1,1,0,0,0,.66,1.89l11.23-3.91A1,1,0,0,0,74.28,59.76Z"/><path class="cls-5" d="M92.36,63.28,77.71,59.62a1,1,0,0,0-.49,1.94l14.65,3.66A1,1,0,0,0,92.36,63.28Z"/><path class="cls-5" d="M108.69,58.62l-14,4.54a1,1,0,0,0,.62,1.9l14-4.54A1,1,0,0,0,108.69,58.62Z"/></g></svg>