<?xml version="1.0" ?><svg style="enable-background:new 0 0 100 100;" version="1.1" viewBox="0 0 100 100" xml:space="preserve" xmlns="http://www.w3.org/2000/svg" xmlns:xlink="http://www.w3.org/1999/xlink"><g id="Layer_1"/><g id="Layer_2"/><g id="Layer_3"/><g id="Layer_4"/><g id="Layer_5"/><g id="Layer_6"/><g id="Layer_7"/><g id="Layer_10"/><g id="Layer_8"/><g id="Layer_9"/><g id="Layer_11"/><g id="Layer_11_copy"/><g id="Layer_11_copy_2"/><g id="Layer_11_copy_3"/><g id="Layer_12"/><g id="Layer_12_copy"/><g id="Layer_12_copy_2"/><g id="Layer_12_copy_3"/><g id="Layer_13"/><g id="Layer_13_copy"/><g id="Layer_13_copy_2"/><g id="Layer_13_copy_3"/><g id="Layer_11_copy_4"><g><path d="M92,2c3.308,0,6,2.692,6,6v84c0,3.308-2.692,6-6,6H8c-3.308,0-6-2.692-6-6V8c0-3.308,2.692-6,6-6h17.57    c2.064,0,3.775,1.549,3.98,3.602l0.37,3.696C30.074,10.838,31.357,12,32.905,12h34.19c1.548,0,2.831-1.161,2.985-2.701l0.37-3.697    C70.655,3.549,72.366,2,74.43,2H92 M92,0H74.43c-3.083,0-5.663,2.336-5.97,5.403L68.09,9.1c-0.051,0.511-0.481,0.9-0.995,0.9    h-34.19c-0.514,0-0.944-0.389-0.995-0.901l-0.37-3.696C31.234,2.336,28.653,0,25.57,0H8C3.582,0,0,3.582,0,8v84    c0,4.418,3.582,8,8,8h84c4.418,0,8-3.582,8-8V8C100,3.582,96.418,0,92,0L92,0z"/><path d="M86,20c2.206,0,4,1.794,4,4v64c0,2.206-1.794,4-4,4H14c-2.206,0-4-1.794-4-4V24c0-2.206,1.794-4,4-4H86 M86,18H14    c-3.314,0-6,2.686-6,6v64c0,3.314,2.686,6,6,6h72c3.314,0,6-2.686,6-6V24C92,20.686,89.314,18,86,18L86,18z"/></g><circle cx="24" cy="34" r="2"/><circle cx="32.667" cy="34" r="2"/><circle cx="41.333" cy="34" r="2"/><circle cx="50" cy="34" r="2"/><circle cx="58.667" cy="34" r="2"/><circle cx="67.333" cy="34" r="2"/><circle cx="76" cy="34" r="2"/><circle cx="24" cy="45" r="2"/><circle cx="32.667" cy="45" r="2"/><circle cx="41.333" cy="45" r="2"/><circle cx="50" cy="45" r="2"/><circle cx="58.667" cy="45" r="2"/><circle cx="67.333" cy="45" r="2"/><circle cx="76" cy="45" r="2"/><circle cx="24" cy="56" r="2"/><circle cx="32.667" cy="56" r="2"/><circle cx="41.333" cy="56" r="2"/><circle cx="50" cy="56" r="2"/><circle cx="58.667" cy="56" r="2"/><circle cx="67.333" cy="56" r="2"/><circle cx="76" cy="56" r="2"/><circle cx="24" cy="67" r="2"/><circle cx="32.667" cy="67" r="2"/><circle cx="24" cy="78" r="2"/><circle cx="32.667" cy="78" r="2"/><circle cx="41.333" cy="67" r="2"/><circle cx="50" cy="67" r="2"/><circle cx="58.667" cy="67" r="2"/><circle cx="67.333" cy="67" r="2"/><circle cx="76" cy="67" r="2"/></g><g id="Layer_4_copy"/></svg>