<?xml version="1.0" ?><svg data-name="Layer 1" id="Layer_1" viewBox="0 0 64 64" xmlns="http://www.w3.org/2000/svg"><title/><path d="M22,52V50a11.214,11.214,0,0,0-4.041-8.639l-1.39-2.892a2.535,2.535,0,0,0-4.264-.537,2.663,2.663,0,0,0-.56,2.209l.586,3.047a1,1,0,0,0,.08.245l.037.077a16.181,16.181,0,0,1-4.226-8.62l-.378-2.36A2.955,2.955,0,0,0,4.941,30a2.909,2.909,0,0,0-2.173.986,3.071,3.071,0,0,0-.746,2.4l.551,4.581a25.175,25.175,0,0,0,6.7,14.353A.987.987,0,0,0,9,53v8a1,1,0,0,0,1,1H22a1,1,0,0,0,1-1V53A1,1,0,0,0,22,52ZM4.558,37.732l-.55-4.581a1.068,1.068,0,0,1,.256-.838A.9.9,0,0,1,4.941,32a.964.964,0,0,1,.928.847l.378,2.359a17.92,17.92,0,0,0,8.476,12.653,1,1,0,0,0,1.413-1.292L14.27,42.684l-.561-2.921a.669.669,0,0,1,.138-.558.54.54,0,0,1,.418-.2.566.566,0,0,1,.5.335l1.488,3.1a1,1,0,0,0,.286.355A9.186,9.186,0,0,1,20,50v2H11.776A23.12,23.12,0,0,1,4.558,37.732ZM21,60H11V54H21Z"/><path d="M59.059,30a2.955,2.955,0,0,0-2.9,2.53l-.378,2.36a16.181,16.181,0,0,1-4.226,8.62l.037-.077a1,1,0,0,0,.08-.245l.586-3.046a2.665,2.665,0,0,0-.56-2.21,2.535,2.535,0,0,0-4.264.538l-1.39,2.891A11.214,11.214,0,0,0,42,50v2a1,1,0,0,0-1,1v8a1,1,0,0,0,1,1H54a1,1,0,0,0,1-1V53a.987.987,0,0,0-.272-.676,25.175,25.175,0,0,0,6.7-14.353l.551-4.581a3.071,3.071,0,0,0-.746-2.4A2.909,2.909,0,0,0,59.059,30ZM53,60H43V54H53Zm6.442-22.268A23.12,23.12,0,0,1,52.224,52H44V50a9.186,9.186,0,0,1,3.459-7.212,1,1,0,0,0,.286-.355l1.488-3.1a.565.565,0,0,1,.5-.336.54.54,0,0,1,.418.2.671.671,0,0,1,.138.559l-.561,2.92-1.866,3.883a1,1,0,0,0,1.413,1.292,17.92,17.92,0,0,0,8.476-12.653l.378-2.359A.964.964,0,0,1,59.059,32a.9.9,0,0,1,.677.313,1.068,1.068,0,0,1,.256.838Z"/><path d="M42,27V23.288a13,13,0,1,0-20,0V27a1,1,0,0,0,.105.447l2,4A1,1,0,0,0,25,32v5a3,3,0,0,0,3,3h8a3,3,0,0,0,3-3V32a1,1,0,0,0,.9-.553l2-4A1,1,0,0,0,42,27ZM37,37a1,1,0,0,1-1,1H28a1,1,0,0,1-1-1V32H37ZM31,21a1,1,0,1,1,1,1A1,1,0,0,1,31,21Zm9,1.919v3.845L38.382,30H37V25.507l1.591-1.167A1,1,0,0,0,39,23.533V15.816a3,3,0,1,0-2,0v7.21l-1.591,1.167A1,1,0,0,0,35,25v5H33V23.816a3,3,0,1,0-2,0V30H29V25a1,1,0,0,0-.409-.807L27,23.026v-7.21a3,3,0,1,0-2,0v7.717a1,1,0,0,0,.409.807L27,25.507V30H25.618L24,26.764V22.919a1,1,0,0,0-.25-.661,11,11,0,1,1,16.5,0A1,1,0,0,0,40,22.919ZM37,13a1,1,0,1,1,1,1A1,1,0,0,1,37,13ZM26,14a1,1,0,1,1,1-1A1,1,0,0,1,26,14Z"/></svg>